<?xml version="1.0" encoding="UTF-8"?>
<svg width="165" height="40" viewBox="0 0 165 40" fill="none" xmlns="http://www.w3.org/2000/svg">
<path d="M162.413 38.1482C163.427 38.1482 164.25 37.3306 164.25 36.3192C164.25 35.3079 163.427 34.4902 162.413 34.4902C161.4 34.4902 160.576 35.3079 160.576 36.3192C160.576 37.3306 161.4 38.1482 162.413 38.1482Z" stroke="#FEFEFE" stroke-width="0.5"/>
<path d="M162.498 36.4129H162.125V37.1364H162.016V35.3984H162.433C162.5 35.3984 162.561 35.4096 162.613 35.4318C162.667 35.4541 162.713 35.4875 162.751 35.5304C162.788 35.5733 162.818 35.6274 162.837 35.691C162.857 35.7546 162.868 35.8278 162.868 35.9104C162.868 35.9677 162.861 36.0217 162.848 36.0726C162.835 36.1235 162.816 36.168 162.793 36.2094C162.769 36.2507 162.741 36.2857 162.708 36.3143C162.676 36.3445 162.64 36.3668 162.6 36.3827L162.921 37.1221V37.138H162.806L162.498 36.4129ZM162.126 36.2873H162.458C162.509 36.2873 162.552 36.2762 162.59 36.2555C162.627 36.2348 162.659 36.2078 162.685 36.1728C162.711 36.1378 162.73 36.0981 162.741 36.052C162.754 36.0058 162.76 35.9581 162.76 35.9088C162.76 35.8484 162.753 35.796 162.739 35.7483C162.725 35.7006 162.704 35.6592 162.676 35.6258C162.647 35.5924 162.613 35.567 162.573 35.5495C162.532 35.532 162.487 35.5225 162.434 35.5225H162.126V36.2873Z" fill="#FEFEFE"/>
<path d="M116.002 32.7633H111.499V36.8874H116.68V37.6086H110.688V27.502H116.654V28.2324H111.508V32.0421H116.011L116.002 32.7633Z" fill="#FEFEFE"/>
<path d="M125.563 37.6086H124.752L119.21 28.9537V37.6086H118.39V27.502H119.21L124.752 36.1569V27.502H125.563V37.6086Z" fill="#FEFEFE"/>
<path d="M133.334 32.7633H128.831V36.8874H134.012V37.6086H128.021V27.502H133.986V28.2324H128.84V32.0421H133.343L133.334 32.7633Z" fill="#FEFEFE"/>
<path d="M139.316 33.4014H136.514V37.6086H135.695V27.502H138.823C139.325 27.502 139.783 27.5667 140.18 27.6961C140.585 27.8256 140.929 28.0198 141.211 28.2694C141.493 28.5191 141.713 28.8335 141.863 29.2034C142.013 29.5732 142.092 29.9986 142.092 30.4794C142.092 30.8123 142.039 31.1267 141.942 31.4226C141.845 31.7185 141.704 31.9774 141.528 32.2178C141.352 32.4582 141.14 32.6616 140.894 32.8281C140.647 33.0038 140.383 33.1332 140.083 33.2257L142.489 37.5254V37.6179H141.625L139.316 33.4014ZM136.523 32.6709H139.017C139.396 32.6709 139.722 32.6061 140.004 32.4859C140.286 32.3657 140.524 32.2085 140.717 32.0051C140.911 31.8017 141.052 31.5705 141.14 31.3024C141.237 31.0342 141.281 30.7568 141.281 30.4702C141.281 30.1188 141.228 29.8136 141.123 29.5362C141.017 29.2588 140.858 29.0184 140.647 28.8242C140.435 28.6301 140.18 28.4821 139.88 28.3804C139.572 28.2787 139.228 28.2232 138.832 28.2232H136.523V32.6709Z" fill="#FEFEFE"/>
<path d="M151.274 36.4066C151.186 36.536 151.063 36.6747 150.895 36.8319C150.728 36.9891 150.508 37.137 150.234 37.2665C149.961 37.4052 149.635 37.5162 149.256 37.6086C148.877 37.7011 148.437 37.7473 147.926 37.7473C147.353 37.7473 146.833 37.6364 146.366 37.4237C145.899 37.211 145.485 36.8966 145.141 36.499C144.798 36.1014 144.533 35.6113 144.348 35.0473C144.154 34.474 144.066 33.836 144.066 33.1332V31.9034C144.066 31.2099 144.154 30.5811 144.322 30.0171C144.498 29.453 144.745 28.9814 145.062 28.5838C145.388 28.1862 145.776 27.8903 146.234 27.6776C146.692 27.465 147.212 27.354 147.785 27.354C148.322 27.354 148.789 27.428 149.203 27.5759C149.618 27.7239 149.961 27.9365 150.252 28.2047C150.543 28.4729 150.763 28.7872 150.93 29.1571C151.098 29.5177 151.212 29.9153 151.265 30.3407H150.455C150.402 30.0356 150.322 29.7489 150.199 29.4808C150.076 29.2033 149.917 28.9722 149.706 28.7595C149.494 28.5561 149.23 28.3896 148.921 28.2694C148.613 28.1492 148.234 28.0845 147.802 28.0845C147.327 28.0845 146.912 28.177 146.551 28.3619C146.19 28.5468 145.882 28.8057 145.635 29.1294C145.388 29.4623 145.194 29.8599 145.071 30.3315C144.939 30.803 144.877 31.3208 144.877 31.8849V33.124C144.877 33.7158 144.948 34.2521 145.097 34.7329C145.247 35.2137 145.45 35.6206 145.714 35.9627C145.978 36.3048 146.304 36.5637 146.675 36.7487C147.053 36.9336 147.468 37.0261 147.926 37.0261C148.296 37.0261 148.622 36.9983 148.904 36.9429C149.186 36.8874 149.433 36.8134 149.635 36.7209C149.847 36.6285 150.014 36.536 150.146 36.4343C150.278 36.3326 150.384 36.2309 150.455 36.1384V33.5308H147.873V32.8096H151.274V36.4066Z" fill="#FEFEFE"/>
<path d="M156.41 33.013L159.353 27.502H160.296L156.816 33.8082V37.6179H156.005V33.8082L152.533 27.502H153.502L156.41 33.013Z" fill="#FEFEFE"/>
<path d="M31.1382 7.70463C24.2388 1.62953 13.9558 1.43535 6.93311 6.06796C9.49724 2.59119 13.903 0.122314 19.1282 0.0483398C22.7056 0.0483398 28.8736 2.75763 33.1736 6.5118C33.2353 6.56728 32.3454 7.04811 31.1382 7.70463Z" fill="#046A38"/>
<path d="M17.9564 37.868C21.1725 37.868 23.3225 37.4426 26.8647 35.8337C27.552 37.8125 25.9219 38.469 24.5738 38.9406C19.6217 40.679 14.7049 40.1057 10.1758 38.469C6.96847 37.3132 3.93733 35.4916 1.50537 32.995C2.28959 32.7638 3.05619 32.4494 3.77873 32.061C7.27687 35.621 12.3435 37.868 17.9564 37.868Z" fill="#046A38"/>
<path d="M1.04721 14.8154C2.80069 23.8865 22.3709 28.5838 22.5912 35.787C22.6 35.9904 22.4679 36.1754 22.274 36.2216C8.81011 39.2638 -3.76384 27.6869 1.04721 14.8154Z" fill="#FFD100"/>
<path d="M24.0451 38.3763C22.7939 40.9561 31.2529 35.2231 33.5879 32.4491C34.848 30.9604 34.4162 27.6686 32.0459 25.135C31.5437 24.6079 30.9974 24.1178 30.4246 23.6647C22.3533 17.1366 9.00396 13.5858 11.6562 6.78947C13.1277 2.06439 18.6701 0.760601 20.8201 0.316758C21.1021 0.224291 20.3355 0.0855899 19.049 0.0301095C9.24187 -0.432227 3.32057 4.48703 1.93718 10.8488C-1.49048 23.2764 28.7945 26.2723 24.0451 38.3763Z" fill="#78BE20"/>
<path d="M54.8147 26.938C57.7665 26.938 59.1323 25.8561 59.1323 23.8958C59.1323 21.9355 57.7313 20.9646 54.427 20.6687L48.0211 19.9105C44.0911 19.5868 42.0205 18.0889 42.0205 15.0282C42.0205 11.6901 44.5317 10.2754 47.9153 10.2754H59.9341V12.171H47.7655C45.4129 12.171 44.0647 13.0402 44.0647 14.9635C44.0647 16.8128 45.2807 17.6728 48.5409 17.9779L54.709 18.7361C58.8944 19.1153 61.1678 20.5023 61.1678 23.8126C61.1678 26.9102 59.1764 28.8336 54.709 28.8336H42.0645C41.8442 28.8336 41.6592 28.6394 41.6592 28.4082V27.7794C41.6592 27.3079 42.0205 26.9287 42.461 26.9287L54.8147 26.938Z" fill="#FEFEFE"/>
<path d="M70.9571 26.938C68.0052 26.938 66.6395 25.8561 66.6395 23.8958C66.6395 21.9355 68.0405 20.9646 71.3448 20.6687L77.7507 19.9105C81.6806 19.5868 83.7513 18.0889 83.7513 15.0282C83.7513 11.6901 81.24 10.2754 77.8564 10.2754H65.8376V12.171H78.0062C80.3589 12.171 81.6982 13.0402 81.6982 14.9635C81.6982 16.8128 80.4823 17.6728 77.222 17.9779L71.054 18.7361C66.8686 19.1153 64.5952 20.5023 64.5952 23.8126C64.5952 26.9102 66.5866 28.8336 71.054 28.8336H83.6984C83.9187 28.8336 84.1038 28.6394 84.1038 28.4082V27.7794C84.1038 27.3079 83.7425 26.9287 83.2931 26.9287L70.9571 26.938Z" fill="#FEFEFE"/>
<path d="M97.6738 20.5023H105.243V26.7716H95.6559C90.8713 26.7716 89.3734 24.4137 89.3734 19.5314C89.3734 14.6954 90.8449 12.3374 95.6559 12.3374H106.089C106.873 12.3374 107.437 11.385 106.785 10.5251C106.67 10.3679 106.494 10.2847 106.309 10.2847H95.6559C89.6818 10.2847 87.3291 13.3823 87.3291 19.5406C87.3291 25.7544 89.7082 28.8428 95.6559 28.8428H107.261V18.6067H97.6738V20.5023Z" fill="#FEFEFE"/>
<path d="M34.7779 26.3463C34.6986 26.2446 30.1255 20.2158 22.3009 16.6188C19.2521 15.2133 14.9345 13.4009 13.2163 10.1276C12.1325 8.06557 12.6083 4.36688 15.1195 4.02475C16.8818 3.78433 18.9437 4.12646 20.6796 4.44085C25.0941 5.23607 29.632 7.16863 32.5222 10.9136C35.8705 15.2595 36.0027 21.1127 34.7779 26.3463Z" fill="#FFD100"/>
</svg>
